<svg width="61" height="44" viewBox="0 0 61 44" fill="none" xmlns="http://www.w3.org/2000/svg">
<path d="M35.5483 31.0909V32.0909H36.5483H42.6989H43.6989V31.0909V22.6591H47.8694C50.2244 22.6591 52.2954 22.2251 54.0427 21.3096C55.7861 20.4011 57.1394 19.1174 58.0727 17.4629C59.0018 15.8159 59.4518 13.9376 59.4518 11.858C59.4518 9.78161 59.008 7.90607 58.0912 6.26065C57.1803 4.59925 55.8542 3.3046 54.1397 2.38417C52.4087 1.44527 50.357 1 48.0256 1H36.5483H35.5483V2V31.0909ZM46.875 15.7301H43.6989V8.02841H46.8466C47.9336 8.02841 48.7458 8.21492 49.3368 8.52483L49.3368 8.52487L49.3453 8.52925C49.949 8.83846 50.3698 9.25745 50.6467 9.79053L50.6503 9.79746L50.654 9.80434C50.9505 10.3538 51.1165 11.0278 51.1165 11.858C51.1165 12.6762 50.9514 13.3599 50.649 13.9353L50.6467 13.9396C50.3678 14.4765 49.942 14.9085 49.3303 15.2371C48.7506 15.5443 47.9506 15.7301 46.875 15.7301Z" fill="#4F518C" stroke="white" stroke-width="2"/>
<path d="M18.5483 31.0909V32.0909H19.5483H25.6989H26.6989V31.0909V22.6591H30.8694C33.2244 22.6591 35.2954 22.2251 37.0427 21.3096C38.7861 20.4011 40.1394 19.1174 41.0727 17.4629C42.0018 15.8159 42.4517 13.9376 42.4517 11.858C42.4517 9.78161 42.008 7.90607 41.0912 6.26065C40.1803 4.59925 38.8542 3.3046 37.1397 2.38417C35.4087 1.44527 33.357 1 31.0256 1H19.5483H18.5483V2V31.0909ZM29.875 15.7301H26.6989V8.02841H29.8466C30.9336 8.02841 31.7458 8.21492 32.3368 8.52483L32.3367 8.52487L32.3453 8.52925C32.949 8.83846 33.3698 9.25745 33.6467 9.79053L33.6503 9.79746L33.654 9.80434C33.9505 10.3538 34.1165 11.0278 34.1165 11.858C34.1165 12.6762 33.9514 13.3599 33.649 13.9353L33.6467 13.9396C33.3678 14.4765 32.942 14.9085 32.3303 15.2371C31.7506 15.5443 30.9506 15.7301 29.875 15.7301Z" fill="#C5B4FB" stroke="white" stroke-width="2"/>
<path d="M1.54834 31.0909V32.0909H2.54834H8.69891H9.69891V31.0909V22.6591H13.8694C16.2244 22.6591 18.2954 22.2251 20.0427 21.3096C21.7861 20.4011 23.1394 19.1174 24.0727 17.4629C25.0018 15.8159 25.4518 13.9376 25.4518 11.858C25.4518 9.78161 25.008 7.90607 24.0912 6.26065C23.1803 4.59925 21.8542 3.3046 20.1397 2.38417C18.4087 1.44527 16.357 1 14.0256 1H2.54834H1.54834V2V31.0909ZM12.875 15.7301H9.69891V8.02841H12.8466C13.9336 8.02841 14.7458 8.21492 15.3368 8.52483L15.3367 8.52487L15.3453 8.52925C15.949 8.83846 16.3698 9.25745 16.6467 9.79053L16.6503 9.79746L16.654 9.80434C16.9505 10.3538 17.1165 11.0278 17.1165 11.858C17.1165 12.6762 16.9514 13.3599 16.649 13.9353L16.6467 13.9396C16.3678 14.4765 15.942 14.9085 15.3303 15.2371C14.7506 15.5443 13.9506 15.7301 12.875 15.7301Z" fill="#907AD6" stroke="white" stroke-width="2"/>
<path d="M2.004 36.6508C2.248 36.6508 2.476 36.6748 2.688 36.7228C2.9 36.7668 3.084 36.8428 3.24 36.9508C3.396 37.0588 3.518 37.2028 3.606 37.3828C3.698 37.5588 3.744 37.7788 3.744 38.0428C3.744 38.2948 3.698 38.5148 3.606 38.7028C3.518 38.8868 3.396 39.0388 3.24 39.1588C3.088 39.2788 2.908 39.3688 2.7 39.4288C2.492 39.4848 2.268 39.5128 2.028 39.5128H1.434V41.0908H0.546V36.6508H2.004ZM1.968 38.8108C2.572 38.8108 2.874 38.5548 2.874 38.0428C2.874 37.7828 2.794 37.6028 2.634 37.5028C2.478 37.4028 2.246 37.3528 1.938 37.3528H1.434V38.8108H1.968ZM45.7323 36.8188V36.2308H49.8423V36.8188H49.1403V37.5268H49.8003V38.1148H45.7683V37.5268H46.4343V36.8188H45.7323ZM47.2203 36.8188V37.5268H48.3543V36.8188H47.2203ZM50.2863 39.0208H45.2943V38.3968H50.2863V39.0208ZM49.8243 40.9948V41.5648H45.8703V40.1668H48.9003V39.8968H45.8643V39.3268H49.6803V40.6948H46.6563V40.9948H49.8243ZM54.9539 41.6008H54.2039V38.7988H53.7059V41.3428H52.9679V36.1768H53.7059V38.1628H54.2039V36.0748H54.9539V41.6008ZM51.1319 39.7348C51.3839 39.7268 51.6339 39.7148 51.8819 39.6988C52.1299 39.6828 52.3919 39.6528 52.6679 39.6088L52.7279 40.2508C52.3719 40.3068 52.0359 40.3428 51.7199 40.3588C51.4079 40.3748 51.0859 40.3828 50.7539 40.3828H50.3639V38.1328H51.6839V37.2508H50.3579V36.6148H52.4459V38.7568H51.1319V39.7348ZM59.7714 41.6248H58.9794V38.4268H57.4914V37.7848H58.9794V36.0748H59.7714V41.6248ZM56.2014 39.6628C56.5534 39.6548 56.9034 39.6348 57.2514 39.6028C57.6034 39.5708 57.9674 39.5188 58.3434 39.4468L58.4334 40.0948C57.9854 40.1868 57.5514 40.2488 57.1314 40.2808C56.7114 40.3088 56.2954 40.3228 55.8834 40.3228H55.4154V36.6688H56.2014V39.6628Z" fill="#907AD6"/>
<path d="M4.27195 36.7108V36.1768H8.05195V37.4788H5.06395V37.7668H8.14795V38.3008H4.28395V36.9808H7.27195V36.7108H4.27195ZM8.66395 39.1348H3.65995V38.5648H8.66395V39.1348ZM8.21995 41.0248V41.5588H4.22995V40.2268H7.28395V39.9448H4.22395V39.4108H8.06995V40.7248H5.01595V41.0248H8.21995ZM13.9649 41.6008H13.1729V36.0808H13.9649V41.6008ZM11.1329 38.6608C10.9249 38.6608 10.7309 38.6328 10.5509 38.5768C10.3749 38.5168 10.2229 38.4348 10.0949 38.3308C9.96686 38.2268 9.86486 38.1028 9.78886 37.9588C9.71686 37.8148 9.68086 37.6568 9.68086 37.4848C9.68086 37.3088 9.71686 37.1488 9.78886 37.0048C9.86486 36.8608 9.96686 36.7368 10.0949 36.6328C10.2229 36.5288 10.3749 36.4488 10.5509 36.3928C10.7309 36.3328 10.9249 36.3028 11.1329 36.3028C11.3409 36.3028 11.5329 36.3328 11.7089 36.3928C11.8849 36.4488 12.0369 36.5288 12.1649 36.6328C12.2969 36.7368 12.3989 36.8608 12.4709 37.0048C12.5429 37.1488 12.5789 37.3088 12.5789 37.4848C12.5789 37.6568 12.5429 37.8148 12.4709 37.9588C12.3989 38.1028 12.2969 38.2268 12.1649 38.3308C12.0369 38.4348 11.8849 38.5168 11.7089 38.5768C11.5329 38.6328 11.3409 38.6608 11.1329 38.6608ZM11.1329 36.9448C10.9289 36.9448 10.7629 36.9908 10.6349 37.0828C10.5069 37.1708 10.4429 37.3048 10.4429 37.4848C10.4429 37.6528 10.5069 37.7828 10.6349 37.8748C10.7629 37.9668 10.9289 38.0128 11.1329 38.0128C11.3369 38.0128 11.5029 37.9668 11.6309 37.8748C11.7589 37.7828 11.8229 37.6528 11.8229 37.4848C11.8229 37.3048 11.7589 37.1708 11.6309 37.0828C11.5029 36.9908 11.3369 36.9448 11.1329 36.9448ZM12.9089 39.3748C12.6809 39.4188 12.4549 39.4568 12.2309 39.4888C12.0069 39.5168 11.7809 39.5408 11.5529 39.5608V41.4388H10.7609V39.6088C10.5209 39.6168 10.2909 39.6228 10.0709 39.6268C9.85086 39.6308 9.64286 39.6328 9.44686 39.6328L9.35686 38.9848C9.59686 38.9848 9.85886 38.9828 10.1429 38.9788C10.4309 38.9748 10.7269 38.9668 11.0309 38.9548C11.3349 38.9428 11.6429 38.9248 11.9549 38.9008C12.2669 38.8768 12.5689 38.8428 12.8609 38.7988L12.9089 39.3748ZM14.2584 37.2808V36.6628H15.4824V36.0748H16.2804V36.6628H17.5164L17.5104 37.2808H14.2584ZM19.3404 38.4208H18.6084V40.2148H17.8164V36.0808H18.6084V37.7668H19.3404V38.4208ZM17.2404 38.5408C17.2404 38.7008 17.2064 38.8468 17.1384 38.9788C17.0704 39.1068 16.9764 39.2188 16.8564 39.3148C16.7364 39.4068 16.5924 39.4788 16.4244 39.5308C16.2604 39.5828 16.0804 39.6088 15.8844 39.6088C15.6844 39.6088 15.5004 39.5828 15.3324 39.5308C15.1684 39.4788 15.0264 39.4068 14.9064 39.3148C14.7864 39.2188 14.6924 39.1068 14.6244 38.9788C14.5604 38.8468 14.5284 38.7008 14.5284 38.5408C14.5284 38.3848 14.5604 38.2428 14.6244 38.1148C14.6924 37.9828 14.7864 37.8708 14.9064 37.7788C15.0264 37.6828 15.1684 37.6088 15.3324 37.5568C15.5004 37.5048 15.6844 37.4788 15.8844 37.4788C16.0804 37.4788 16.2604 37.5048 16.4244 37.5568C16.5924 37.6088 16.7364 37.6828 16.8564 37.7788C16.9764 37.8708 17.0704 37.9828 17.1384 38.1148C17.2064 38.2428 17.2404 38.3848 17.2404 38.5408ZM15.2844 38.5408C15.2844 38.6928 15.3384 38.8088 15.4464 38.8888C15.5584 38.9688 15.7044 39.0088 15.8844 39.0088C16.0644 39.0088 16.2084 38.9688 16.3164 38.8888C16.4284 38.8088 16.4844 38.6928 16.4844 38.5408C16.4844 38.3888 16.4284 38.2748 16.3164 38.1988C16.2084 38.1188 16.0644 38.0788 15.8844 38.0788C15.7044 38.0788 15.5584 38.1188 15.4464 38.1988C15.3384 38.2748 15.2844 38.3888 15.2844 38.5408ZM18.8064 40.8808V41.5108H15.0444V39.9088H15.8364V40.8808H18.8064ZM20.3273 37.1908V36.5608H24.5273V37.1908H23.7773V38.8468H24.5093V39.4768H20.3573V38.8468H21.0773V37.1908H20.3273ZM21.8633 37.1908V38.8468H22.9913V37.1908H21.8633ZM24.9413 40.9648H19.9373V40.3228H24.9413V40.9648ZM29.8608 41.0008H24.8568V40.3528H26.9568V39.5308H25.4328V37.6588H28.5168V37.0648H25.4268V36.4348H29.2968V38.2768H26.2188V38.8948H29.4228V39.5308H27.7488V40.3528H29.8608V41.0008ZM30.2924 37.2208V36.5908H34.1624V37.2448C34.1624 37.4368 34.1604 37.6308 34.1564 37.8268C34.1564 38.0228 34.1504 38.2288 34.1384 38.4448C34.1264 38.6568 34.1064 38.8828 34.0784 39.1228C34.0504 39.3628 34.0104 39.6248 33.9584 39.9088L33.1724 39.8368C33.2204 39.5728 33.2564 39.3248 33.2804 39.0928C33.3084 38.8608 33.3284 38.6388 33.3404 38.4268C33.3564 38.2148 33.3644 38.0128 33.3644 37.8208C33.3684 37.6248 33.3704 37.4328 33.3704 37.2448V37.2208H30.2924ZM34.7744 40.8868H29.7764V40.2388H34.7744V40.8868ZM39.4359 41.6008H38.6859V38.7988H38.1879V41.3428H37.4499V36.1768H38.1879V38.1628H38.6859V36.0748H39.4359V41.6008ZM35.6139 39.7348C35.8659 39.7268 36.1159 39.7148 36.3639 39.6988C36.6119 39.6828 36.8739 39.6528 37.1499 39.6088L37.2099 40.2508C36.8539 40.3068 36.5179 40.3428 36.2019 40.3588C35.8899 40.3748 35.5679 40.3828 35.2359 40.3828H34.8459V38.1328H36.1659V37.2508H34.8399V36.6148H36.9279V38.7568H35.6139V39.7348ZM44.2534 41.6188H43.4614V38.6188H42.4474V40.2628H39.8194V36.5668H42.4474V37.9828H43.4614V36.0808H44.2534V41.6188ZM40.5994 37.1848V39.6388H41.6674V37.1848H40.5994Z" fill="#4F518C"/>
</svg>
